#!OML:ASF F:\VICON\USERDATA\INSTALL\rory3\rory3.ASF
:FULLY-SPECIFIED
:DEGREES
1238
root 2.53516 19.0968 4.34762 5.40078 -6.74945 -5.65697
lowerback -1.66328 -0.951826 2.66605
upperback -2.67008 -1.26085 1.74118
thorax -1.82535 -0.663824 0.292436
lowerneck -12.5705 -0.414281 -2.09182
upperneck 37.5478 -0.268813 0.27611
head 15.2303 -0.436443 0.429323
rclavicle 9.63484e-015 -3.97569e-015
rhumerus -48.6519 2.19148 -82.4246
rradius 69.8551
rwrist 5.60186
rhand -24.9456 -39.1782
rfingers 7.12502
rthumb 1.56409 -789.152
lclavicle 9.63484e-015 -3.97569e-015
lhumerus -41.0622 -16.4214 78.2742
lradius 74.6036
lwrist -0.672833
lhand -30.0074 -40.5196
lfingers 7.12502
lthumb -3.32465 -10.5657
rfemur -82.1326 14.6742 24.5726
rtibia 125.996
rfoot 2.20922 -14.9792
rtoes 2.68237
lfemur -20.8143 -4.94509 -18.7249
ltibia 17.4696
lfoot 10.3524 3.59239
ltoes -8.8978
1239
root 2.54171 19.0038 4.421 5.14621 -6.61029 -5.54975
lowerback -0.846977 -1.12983 2.90835
upperback -3.10883 -1.4526 1.66371
thorax -2.7483 -0.776948 0.1041
lowerneck -12.4703 -0.339951 -2.16858
upperneck 37.8707 -0.135579 0.256805
head 15.3646 -0.399763 0.456347
rclavicle -2.72087e-015 1.59028e-015
rhumerus -49.242 2.51412 -82.5123
rradius 69.7051
rwrist 5.48226
rhand -25.1624 -40.1584
rfingers 7.12502
rthumb 1.35474 -790.134
lclavicle -2.72087e-015 1.59028e-015
lhumerus -42.2048 -15.8817 78.6147
lradius 74.5405
lwrist -0.561171
lhand -29.8928 -40.7557
lfingers 7.12502
lthumb -3.21393 -10.8002
rfemur -81.7772 14.3308 24.5624
rtibia 125.945
rfoot 2.54444 -14.9594
rtoes 3.21349
lfemur -21.5407 -4.65881 -19.1672
ltibia 18.1806
lfoot 11.0336 3.25744
ltoes -9.74333
1240
root 2.53344 18.8875 4.48705 4.93954 -6.56793 -5.346
lowerback -0.989103 -1.1535 2.92145
upperback -2.90486 -1.49877 1.50708
thorax -2.46308 -0.797979 -0.0701335
lowerneck -12.6633 -0.382053 -2.0907
upperneck 37.6886 -0.163463 0.121969
head 15.3207 -0.416873 0.380391
rclavicle -1.97107e-014 8.74653e-015
rhumerus -48.6184 2.31348 -82.5164
rradius 69.2186
rwrist 5.42329
rhand -25.0962 -41.1815
rfingers 7.12502
rthumb 1.41868 -791.157
lclavicle -1.97107e-014 8.74653e-015
lhumerus -42.1142 -15.5242 78.627
lradius 74.2927
lwrist -0.657049
lhand -29.9931 -40.8857
lfingers 7.12502
lthumb -3.3108 -10.9316
rfemur -81.8187 14.0458 24.5567
rtibia 125.987
rfoot 2.99941 -15.0249
rtoes 4.42743
lfemur -22.3687 -3.89664 -19.8041
ltibia 19.231
lfoot 12.1434 2.82851
ltoes -8.30815
1241
root 2.51893 18.7525 4.53756 4.74257 -6.76438 -5.24495
lowerback -0.814983 -1.10368 2.94601
upperback -2.78243 -1.4306 1.36932
thorax -2.43725 -0.764803 -0.224212
lowerneck -12.8764 -0.373842 -1.79997
upperneck 37.569 -0.0837859 -0.259511
head 15.3109 -0.392975 0.179773
rclavicle 1.71141e-014 -9.54166e-015
rhumerus -48.2186 2.02549 -82.5615
rradius 69.0407
rwrist 5.42568
rhand -24.7393 -41.5507
rfingers 7.12502
rthumb 1.76333 -791.523
lclavicle 1.71141e-014 -9.54166e-015
lhumerus -41.9703 -15.2787 78.5883
lradius 73.8154
lwrist -0.932571
lhand -30.1784 -40.9483
lfingers 7.12502
lthumb -3.4897 -10.9971
rfemur -82.1851 14.1163 24.6686
rtibia 126.009
rfoot 2.98402 -15.3756
rtoes 4.28474
lfemur -23.1862 -2.68668 -20.4068
ltibia 20.4927
lfoot 13.6265 2.39647
ltoes -4.68624
